<svg alt="Matter Labs — an engineering team passionate about liberty, blockchain, and math. You might know us as humble creators of zkSync" title="We are the Matter Labs" width="140" height="20" viewBox="0 0 140 20" fill="none" style="background-color:#343a40" xmlns="http://www.w3.org/2000/svg" class="projectLogo _margin-right-1-2"><g clip-path="url(#clip0)"><path d="M99.8457 3.15971V14.5373H106.201V16.8962H97.2554V3.15971H99.8457Z" fill="#8C8AFF"></path> <path d="M114.928 16.8962V15.5179H114.653C114.144 16.3414 113.28 17.1662 111.555 17.1662C109.121 17.1662 107.082 15.0083 107.082 12.0255C107.082 9.04277 109.121 6.88618 111.555 6.88618C113.284 6.88618 114.144 7.70971 114.653 8.53456H114.928V7.16158H117.36V16.8962H114.928ZM114.889 12.0309C114.889 10.1869 113.751 9.08934 112.221 9.08934C110.73 9.08934 109.56 10.1537 109.56 12.0309C109.56 13.9081 110.736 14.9737 112.221 14.9737C113.751 14.9684 114.889 13.8695 114.889 12.0255V12.0309Z" fill="#8C8AFF"></path> <path d="M121.636 3.15971V8.53456H121.876C122.387 7.7097 123.249 6.88618 124.976 6.88618C127.408 6.88618 129.449 9.0441 129.449 12.0255C129.449 15.007 127.404 17.1622 124.972 17.1622C123.242 17.1622 122.383 16.3374 121.872 15.5139H121.598V16.8962H119.165V3.15971H121.636ZM121.636 12.0255C121.636 13.8695 122.774 14.9684 124.305 14.9684C125.795 14.9684 126.966 13.9041 126.966 12.0255C126.966 10.147 125.789 9.08401 124.305 9.08401C122.774 9.08401 121.636 10.1816 121.636 12.0255Z" fill="#8C8AFF"></path> <path d="M134.662 6.88618C136.939 6.88618 138.547 7.92656 139.665 9.10264L137.998 10.5741C136.879 9.27959 135.761 8.88712 134.781 8.88712C133.8 8.88712 133.348 9.28624 133.348 9.80909C133.348 10.3319 133.839 10.6073 134.761 10.771L135.938 10.9665C138.056 11.3204 139.723 12.0455 139.723 13.9679C139.723 15.8904 137.994 17.1609 135.599 17.1609C133.087 17.1609 131.243 15.8851 130.263 14.3351L132.205 13.1378C133.087 14.7063 134.383 15.1587 135.559 15.1587C136.698 15.1587 137.325 14.7063 137.325 14.1183C137.325 13.5302 136.815 13.2548 135.834 13.0979L134.662 12.9049C132.387 12.5324 130.955 11.689 130.955 9.88359C130.955 8.07823 132.426 6.88618 134.662 6.88618Z" fill="#8C8AFF"></path> <path d="M40.6559 3.15971L43.5588 14.1835H43.7943L46.6973 3.15971H51.1701V16.8962H48.6596V5.90567H48.4241L45.5797 16.8962H41.7734L38.929 5.90567H38.6936V16.8962H36.1831V3.15971H40.6559Z" fill="white"></path> <path d="M60.2528 16.8962V15.5179H59.9787C59.4692 16.3414 58.6057 17.1662 56.8789 17.1662C54.4469 17.1662 52.406 15.0083 52.406 12.0255C52.406 9.04277 54.4469 6.88618 56.8789 6.88618C58.6084 6.88618 59.4692 7.71104 59.9787 8.53456H60.2528V7.16158H62.6861V16.8962H60.2528ZM60.2142 12.0309C60.2142 10.1869 59.0767 9.08934 57.5534 9.08934C56.062 9.08934 54.8846 10.1537 54.8846 12.0309C54.8846 13.9081 56.062 14.9737 57.5534 14.9737C59.0807 14.9684 60.2142 13.8695 60.2142 12.0255V12.0309Z" fill="white"></path> <path d="M65.1886 7.16158V4.14023H67.6592V7.16158H70.328V9.24101H67.6592V14.2234C67.6592 14.6225 67.8561 14.8114 68.2086 14.8114H69.8863V16.8962H67.111C66.0121 16.8962 65.1886 16.1112 65.1886 15.0136V9.24101H63.793V7.16158H65.1886Z" fill="white"></path> <path d="M71.3125 7.16158V4.14023H73.7844V7.16158H76.4518V9.24101H73.7844V14.2234C73.7844 14.6225 73.9799 14.8114 74.3325 14.8114H76.0101V16.8962H73.2349C72.136 16.8962 71.3125 16.1112 71.3125 15.0136V7.16424V7.16158Z" fill="white"></path> <path d="M82.0129 6.88618C84.8374 6.88618 86.7399 8.86716 86.7399 11.7914V12.7134H79.6581C79.7566 14.0438 80.6785 15.0469 82.0914 15.0469C83.4644 15.0469 84.1908 14.2819 84.5234 13.5954L86.5443 14.7675C85.8791 15.7879 84.7389 17.1622 82.13 17.1622C79.2271 17.1622 77.1277 14.9644 77.1277 11.9431C77.1277 9.00552 79.1486 6.88618 82.0129 6.88618ZM84.2254 11.065C84.0924 9.79046 83.2648 9.00552 81.989 9.00552C80.596 9.00552 79.8311 9.82904 79.6741 11.065H84.2254Z" fill="white"></path> <path d="M90.4184 8.57313H90.6925C91.065 7.49417 91.8898 7.12166 93.1245 7.12166H94.0704V9.27958H92.6149C91.359 9.27958 90.457 9.94478 90.457 11.3204V16.8962H87.9851V7.16157H90.4184V8.57313Z" fill="white"></path> <path d="M21.9624 3.00007C22.2592 3.00007 22.5493 2.91206 22.7961 2.74716C23.0429 2.58226 23.2352 2.34788 23.3488 2.07366C23.4624 1.79945 23.4921 1.49771 23.4342 1.2066C23.3763 0.915493 23.2334 0.648094 23.0235 0.438218C22.8136 0.228341 22.5462 0.0854134 22.2551 0.0275087C21.964 -0.0303961 21.6623 -0.000677284 21.3881 0.112907C21.1139 0.226491 20.8795 0.41884 20.7146 0.665628C20.5497 0.912417 20.4617 1.20256 20.4617 1.49937C20.462 1.89727 20.6202 2.27878 20.9016 2.56014C21.183 2.8415 21.5645 2.99972 21.9624 3.00007Z" fill="white"></path> <path d="M8.15141 3.00007C8.44827 3.00033 8.73855 2.91254 8.98551 2.7478C9.23248 2.58306 9.42503 2.34878 9.53882 2.07459C9.65261 1.80039 9.68252 1.49861 9.62476 1.20742C9.56701 0.916221 9.42419 0.648698 9.21436 0.438688C9.00454 0.228679 8.73714 0.0856188 8.446 0.0276061C8.15486 -0.0304066 7.85305 -0.000765503 7.57875 0.11278C7.30446 0.226325 7.07 0.418672 6.90504 0.66549C6.74009 0.912307 6.65204 1.2025 6.65204 1.49937C6.65239 1.89704 6.81043 2.27835 7.0915 2.55967C7.37257 2.84099 7.75374 2.99937 8.15141 3.00007Z" fill="white"></path> <path d="M21.9624 10.6246C21.6655 10.6244 21.3752 10.7121 21.1283 10.8769C20.8813 11.0416 20.6887 11.2759 20.5749 11.5501C20.4612 11.8243 20.4312 12.1261 20.489 12.4173C20.5468 12.7085 20.6896 12.976 20.8994 13.186C21.1092 13.396 21.3766 13.5391 21.6678 13.5971C21.9589 13.6551 22.2607 13.6255 22.535 13.5119C22.8093 13.3984 23.0438 13.206 23.2087 12.9592C23.3737 12.7124 23.4617 12.4222 23.4617 12.1253C23.4614 11.7276 23.3033 11.3463 23.0223 11.065C22.7412 10.7837 22.36 10.6253 21.9624 10.6246Z" fill="white"></path> <path d="M15.0575 9.37537C15.3544 9.37564 15.6447 9.28785 15.8916 9.12311C16.1386 8.95837 16.3312 8.72408 16.445 8.44989C16.5587 8.1757 16.5886 7.87391 16.5309 7.58272C16.4731 7.29153 16.3303 7.024 16.1205 6.81399C15.9107 6.60398 15.6433 6.46092 15.3521 6.40291C15.061 6.3449 14.7592 6.37454 14.4849 6.48808C14.2106 6.60163 13.9761 6.79398 13.8112 7.04079C13.6462 7.28761 13.5582 7.57781 13.5582 7.87468C13.5585 8.27235 13.7166 8.65365 13.9976 8.93497C14.2787 9.21629 14.6599 9.37467 15.0575 9.37537Z" fill="white"></path> <path d="M15.0576 16.9999C14.7607 16.9999 14.4706 17.088 14.2238 17.2529C13.977 17.4178 13.7847 17.6521 13.6711 17.9263C13.5575 18.2006 13.5278 18.5023 13.5857 18.7934C13.6436 19.0845 13.7865 19.3519 13.9964 19.5618C14.2063 19.7717 14.4737 19.9146 14.7648 19.9725C15.0559 20.0304 15.3576 20.0007 15.6318 19.8871C15.9061 19.7735 16.1404 19.5812 16.3053 19.3344C16.4702 19.0876 16.5583 18.7974 16.5583 18.5006C16.5579 18.1027 16.3997 17.7212 16.1183 17.4399C15.837 17.1585 15.4555 17.0003 15.0576 16.9999Z" fill="white"></path> <path d="M1.77609 16.9999C1.47928 16.9999 1.18913 17.088 0.942346 17.2529C0.695558 17.4178 0.503209 17.6521 0.389625 17.9263C0.276041 18.2006 0.246322 18.5023 0.304227 18.7934C0.362132 19.0845 0.505059 19.3519 0.714936 19.5618C0.924812 19.7717 1.19221 19.9146 1.48332 19.9725C1.77442 20.0304 2.07616 20.0007 2.35038 19.8871C2.6246 19.7735 2.85898 19.5812 3.02387 19.3344C3.18877 19.0876 3.27679 18.7974 3.27679 18.5006C3.27644 18.1027 3.11821 17.7212 2.83685 17.4399C2.5555 17.1585 2.17399 17.0003 1.77609 16.9999Z" fill="white"></path> <path d="M28.339 16.9999C28.0422 16.9999 27.7521 17.088 27.5053 17.2529C27.2585 17.4178 27.0661 17.6521 26.9526 17.9263C26.839 18.2006 26.8092 18.5023 26.8672 18.7934C26.9251 19.0845 27.068 19.3519 27.2779 19.5618C27.4877 19.7717 27.7551 19.9146 28.0462 19.9725C28.3374 20.0304 28.6391 20.0007 28.9133 19.8871C29.1875 19.7735 29.4219 19.5812 29.5868 19.3344C29.7517 19.0876 29.8397 18.7974 29.8397 18.5006C29.8394 18.1027 29.6811 17.7212 29.3998 17.4399C29.1184 17.1585 28.7369 17.0003 28.339 16.9999Z" fill="white"></path> <path d="M8.1514 10.6246C7.85459 10.6246 7.56444 10.7126 7.31765 10.8775C7.07086 11.0424 6.87851 11.2768 6.76493 11.551C6.65135 11.8253 6.62163 12.127 6.67953 12.4181C6.73744 12.7092 6.88036 12.9766 7.09024 13.1865C7.30012 13.3964 7.56752 13.5393 7.85862 13.5972C8.14973 13.6551 8.45147 13.6254 8.72569 13.5118C8.99991 13.3982 9.23428 13.2059 9.39918 12.9591C9.56408 12.7123 9.65209 12.4221 9.65209 12.1253C9.65174 11.7274 9.49352 11.3459 9.21216 11.0646C8.9308 10.7832 8.5493 10.625 8.1514 10.6246Z" fill="white"></path> <path d="M23.2156 3.32601C22.9609 3.50209 22.6719 3.62256 22.3676 3.67959C22.0632 3.73663 21.7503 3.72894 21.4491 3.65703C21.1479 3.58512 20.8652 3.4506 20.6195 3.26223C20.3737 3.07385 20.1703 2.83585 20.0226 2.56369L16.2669 6.03738C16.5649 6.23297 16.8117 6.49711 16.9866 6.80769L20.1078 3.92603L20.3419 4.08834L15.8611 15.1187L15.5804 15.0642V10.0313C15.2339 10.1164 14.8719 10.1164 14.5254 10.0313V15.0336L14.2447 15.0881L9.77451 4.08834L10.0073 3.92603L13.1298 6.80769C13.3036 6.4971 13.5495 6.23289 13.8469 6.03738L10.0911 2.56768C9.94344 2.83984 9.74009 3.07785 9.49432 3.26622C9.24855 3.45459 8.96588 3.58911 8.66469 3.66102C8.3635 3.73293 8.05054 3.74062 7.74619 3.68359C7.44183 3.62655 7.15289 3.50608 6.89817 3.33L2.03021 16.3161C2.36324 16.3542 2.68316 16.4679 2.9656 16.6484C3.24803 16.8289 3.48552 17.0716 3.65996 17.3578L6.99928 14.0185C6.6974 13.8316 6.44503 13.5747 6.26357 13.2695L3.60275 15.9303L3.36328 15.776L7.34519 5.15931L7.62723 5.20987V9.99933C7.97375 9.9142 8.33572 9.9142 8.68224 9.99933V4.94379L8.96163 4.88791L13.4384 15.9063L13.2043 16.0686L10.0911 13.1923C9.91958 13.5046 9.67547 13.7711 9.37938 13.9693L13.1298 17.4283C13.3213 17.0847 13.6011 16.7985 13.9402 16.5993C14.2793 16.4001 14.6655 16.295 15.0589 16.295C15.4522 16.295 15.8384 16.4001 16.1776 16.5993C16.5167 16.7985 16.7965 17.0847 16.988 17.4283L20.7384 13.9693C20.442 13.7703 20.1978 13.5029 20.0266 13.1896L16.9161 16.062L16.682 15.8997L21.1575 4.88126L21.4382 4.93713V9.99268C21.7847 9.90755 22.1467 9.90755 22.4932 9.99268V5.20322L22.7752 5.15266L26.7518 15.772L26.5137 15.9263L23.8529 13.2655C23.6695 13.5714 23.4148 13.8284 23.1105 14.0145L26.4498 17.3538C26.625 17.068 26.8631 16.8259 27.146 16.6461C27.4289 16.4663 27.7491 16.3534 28.0822 16.3161L23.2156 3.32601Z" fill="white"></path></g> <defs><clipPath id="clip0"><rect width="139.447" height="20" fill="white" transform="translate(0.276733)"></rect></clipPath></defs></svg>
