<?xml version="1.0" encoding="UTF-8"?>
<svg xmlns="http://www.w3.org/2000/svg" xmlns:xlink="http://www.w3.org/1999/xlink" width="200px" height="76px" viewBox="0 0 198 76" version="1.1">
<g id="surface1">
<path style=" stroke:none;fill-rule:evenodd;fill:rgb(45.490196%,66.666667%,0%);fill-opacity:1;" d="M 38.53125 34.835938 C 38.324219 35.636719 37.550781 36.148438 36.734375 36.027344 C 32.570312 35.378906 28.609375 33.269531 25.6875 29.773438 C 19.285156 22.109375 20.285156 10.667969 27.914062 4.238281 C 35.542969 -2.191406 46.933594 -1.191406 53.332031 6.472656 C 56.253906 9.96875 57.636719 14.25 57.546875 18.484375 C 57.527344 19.3125 56.886719 19.988281 56.066406 20.054688 C 55.332031 20.121094 54.601562 20.226562 53.871094 20.371094 C 53.386719 20.472656 52.882812 20.339844 52.507812 20.019531 C 52.128906 19.695312 51.921875 19.214844 51.945312 18.71875 C 52.089844 15.683594 51.144531 12.589844 49.046875 10.082031 C 44.632812 4.796875 36.773438 4.105469 31.507812 8.542969 C 26.242188 12.976562 25.554688 20.871094 29.972656 26.160156 C 32.066406 28.667969 34.9375 30.140625 37.9375 30.523438 C 38.425781 30.589844 38.863281 30.878906 39.113281 31.304688 C 39.363281 31.734375 39.40625 32.257812 39.222656 32.71875 C 38.953125 33.414062 38.722656 34.117188 38.53125 34.835938 Z M 38.53125 34.835938 "/>
<path style=" stroke:none;fill-rule:evenodd;fill:rgb(0%,0%,0%);fill-opacity:1;" d="M 38.527344 12.507812 C 41.609375 11.960938 44.554688 14.035156 45.097656 17.132812 C 45.644531 20.230469 43.582031 23.1875 40.496094 23.734375 C 37.410156 24.28125 34.464844 22.210938 33.921875 19.109375 C 33.378906 16.011719 35.441406 13.054688 38.527344 12.507812 Z M 38.527344 12.507812 "/>
<path style=" stroke:none;fill-rule:evenodd;fill:rgb(45.490196%,66.666667%,0%);fill-opacity:1;" d="M 40.851562 38.703125 C 40.054688 38.496094 39.542969 37.71875 39.664062 36.898438 C 40.3125 32.714844 42.414062 28.738281 45.894531 25.800781 C 53.523438 19.371094 64.914062 20.375 71.3125 28.035156 C 77.714844 35.699219 76.71875 47.140625 69.089844 53.570312 C 65.609375 56.503906 61.34375 57.890625 57.128906 57.804688 C 56.304688 57.78125 55.632812 57.140625 55.566406 56.316406 C 55.5 55.578125 55.398438 54.84375 55.25 54.113281 C 55.152344 53.625 55.28125 53.117188 55.605469 52.742188 C 55.925781 52.363281 56.402344 52.152344 56.898438 52.175781 C 59.917969 52.320312 63 51.371094 65.496094 49.265625 C 70.757812 44.832031 71.445312 36.9375 67.027344 31.648438 C 62.613281 26.359375 54.753906 25.671875 49.488281 30.105469 C 46.992188 32.210938 45.523438 35.09375 45.144531 38.105469 C 45.078125 38.597656 44.792969 39.035156 44.367188 39.289062 C 43.9375 39.539062 43.417969 39.582031 42.957031 39.398438 C 42.269531 39.128906 41.566406 38.894531 40.851562 38.703125 Z M 40.851562 38.703125 "/>
<path style=" stroke:none;fill-rule:evenodd;fill:rgb(0%,0%,0%);fill-opacity:1;" d="M 63.082031 38.695312 C 63.625 41.796875 61.5625 44.753906 58.476562 45.300781 C 55.394531 45.847656 52.445312 43.773438 51.902344 40.675781 C 51.359375 37.578125 53.421875 34.621094 56.507812 34.074219 C 59.589844 33.527344 62.535156 35.597656 63.082031 38.695312 Z M 63.082031 38.695312 "/>
<path style=" stroke:none;fill-rule:evenodd;fill:rgb(45.490196%,66.666667%,0%);fill-opacity:1;" d="M 37 41.035156 C 37.207031 40.234375 37.984375 39.71875 38.796875 39.84375 C 42.964844 40.492188 46.921875 42.601562 49.84375 46.097656 C 56.246094 53.761719 55.25 65.203125 47.621094 71.632812 C 39.992188 78.0625 28.601562 77.0625 22.199219 69.398438 C 19.277344 65.902344 17.898438 61.617188 17.984375 57.382812 C 18.007812 56.558594 18.644531 55.878906 19.464844 55.8125 C 20.199219 55.75 20.933594 55.644531 21.660156 55.496094 C 22.144531 55.398438 22.648438 55.527344 23.027344 55.851562 C 23.402344 56.175781 23.609375 56.652344 23.589844 57.152344 C 23.441406 60.183594 24.390625 63.277344 26.484375 65.785156 C 30.902344 71.074219 38.761719 71.765625 44.023438 67.328125 C 49.289062 62.890625 49.976562 54.996094 45.558594 49.710938 C 43.464844 47.203125 40.59375 45.726562 37.597656 45.34375 C 37.105469 45.28125 36.671875 44.992188 36.417969 44.5625 C 36.167969 44.132812 36.128906 43.613281 36.308594 43.148438 C 36.578125 42.457031 36.808594 41.75 37 41.035156 Z M 37 41.035156 "/>
<path style=" stroke:none;fill-rule:evenodd;fill:rgb(0%,0%,0%);fill-opacity:1;" d="M 37.007812 63.359375 C 33.921875 63.90625 30.976562 61.835938 30.433594 58.738281 C 29.890625 55.640625 31.953125 52.679688 35.035156 52.132812 C 38.121094 51.589844 41.066406 53.660156 41.609375 56.757812 C 42.15625 59.855469 40.089844 62.816406 37.007812 63.359375 Z M 37.007812 63.359375 "/>
<path style=" stroke:none;fill-rule:evenodd;fill:rgb(45.490196%,66.666667%,0%);fill-opacity:1;" d="M 34.679688 37.164062 C 35.476562 37.375 35.988281 38.152344 35.867188 38.96875 C 35.21875 43.15625 33.121094 47.132812 29.640625 50.066406 C 22.011719 56.496094 10.621094 55.496094 4.21875 47.832031 C -2.183594 40.167969 -1.1875 28.726562 6.441406 22.296875 C 9.921875 19.363281 14.1875 17.976562 18.402344 18.066406 C 19.226562 18.085938 19.902344 18.726562 19.964844 19.554688 C 20.03125 20.289062 20.136719 21.027344 20.28125 21.757812 C 20.382812 22.242188 20.25 22.75 19.929688 23.128906 C 19.609375 23.507812 19.128906 23.714844 18.636719 23.691406 C 15.613281 23.546875 12.535156 24.5 10.039062 26.601562 C 4.773438 31.039062 4.085938 38.933594 8.503906 44.222656 C 12.921875 49.507812 20.78125 50.199219 26.042969 45.761719 C 28.539062 43.660156 30.007812 40.777344 30.390625 37.761719 C 30.453125 37.269531 30.742188 36.835938 31.167969 36.582031 C 31.59375 36.328125 32.113281 36.289062 32.574219 36.472656 C 33.265625 36.742188 33.96875 36.972656 34.679688 37.164062 Z M 34.679688 37.164062 "/>
<path style=" stroke:none;fill-rule:evenodd;fill:rgb(0%,0%,0%);fill-opacity:1;" d="M 12.453125 37.171875 C 11.910156 34.074219 13.972656 31.117188 17.054688 30.570312 C 20.140625 30.023438 23.085938 32.09375 23.628906 35.191406 C 24.171875 38.289062 22.109375 41.25 19.027344 41.796875 C 15.941406 42.34375 12.996094 40.269531 12.453125 37.171875 Z M 12.453125 37.171875 "/>
<path style=" stroke:none;fill-rule:nonzero;fill:rgb(13.72549%,12.156863%,12.54902%);fill-opacity:1;" d="M 85.21875 47.5625 C 84.90625 47.5625 84.640625 47.453125 84.421875 47.230469 C 84.203125 47.011719 84.09375 46.746094 84.09375 46.433594 L 84.09375 24.226562 C 84.09375 23.910156 84.203125 23.644531 84.421875 23.425781 C 84.640625 23.207031 84.90625 23.097656 85.21875 23.097656 L 89.058594 23.097656 C 89.371094 23.097656 89.636719 23.207031 89.855469 23.425781 C 90.074219 23.644531 90.183594 23.910156 90.183594 24.226562 L 90.183594 26.15625 C 90.996094 25.152344 92.035156 24.3125 93.300781 23.636719 C 94.5625 22.964844 96.132812 22.625 98.007812 22.625 C 99.910156 22.625 101.566406 23.058594 102.972656 23.917969 C 104.375 24.78125 105.460938 25.996094 106.226562 27.566406 C 106.992188 29.132812 107.375 31.015625 107.375 33.210938 L 107.375 46.433594 C 107.375 46.746094 107.265625 47.011719 107.046875 47.230469 C 106.828125 47.453125 106.5625 47.5625 106.25 47.5625 L 102.128906 47.5625 C 101.816406 47.5625 101.550781 47.453125 101.332031 47.230469 C 101.113281 47.011719 101.003906 46.746094 101.003906 46.433594 L 101.003906 33.492188 C 101.003906 31.675781 100.558594 30.246094 99.667969 29.210938 C 98.78125 28.175781 97.492188 27.660156 95.804688 27.660156 C 94.179688 27.660156 92.886719 28.175781 91.917969 29.210938 C 90.949219 30.246094 90.464844 31.675781 90.464844 33.492188 L 90.464844 46.433594 C 90.464844 46.746094 90.355469 47.011719 90.136719 47.230469 C 89.917969 47.453125 89.652344 47.5625 89.339844 47.5625 Z M 85.21875 47.5625 "/>
<path style=" stroke:none;fill-rule:nonzero;fill:rgb(13.72549%,12.156863%,12.54902%);fill-opacity:1;" d="M 114.492188 47.5625 C 114.183594 47.5625 113.917969 47.453125 113.699219 47.230469 C 113.480469 47.011719 113.371094 46.746094 113.371094 46.433594 L 113.371094 15.285156 C 113.371094 14.972656 113.480469 14.707031 113.699219 14.488281 C 113.917969 14.265625 114.183594 14.15625 114.492188 14.15625 L 118.382812 14.15625 C 118.695312 14.15625 118.960938 14.265625 119.179688 14.488281 C 119.394531 14.707031 119.503906 14.972656 119.503906 15.285156 L 119.503906 46.433594 C 119.503906 46.746094 119.394531 47.011719 119.179688 47.230469 C 118.960938 47.453125 118.695312 47.5625 118.382812 47.5625 Z M 114.492188 47.5625 "/>
<path style=" stroke:none;fill-rule:nonzero;fill:rgb(45.490196%,66.666667%,0%);fill-opacity:1;" d="M 126.859375 47.5625 C 126.546875 47.5625 126.28125 47.453125 126.0625 47.230469 C 125.84375 47.011719 125.734375 46.746094 125.734375 46.433594 L 125.734375 24.226562 C 125.734375 23.910156 125.84375 23.644531 126.0625 23.425781 C 126.28125 23.207031 126.546875 23.097656 126.859375 23.097656 L 130.699219 23.097656 C 131.011719 23.097656 131.277344 23.207031 131.496094 23.425781 C 131.714844 23.644531 131.824219 23.910156 131.824219 24.226562 L 131.824219 26.15625 C 132.636719 25.152344 133.675781 24.3125 134.9375 23.636719 C 136.203125 22.964844 137.773438 22.625 139.648438 22.625 C 141.550781 22.625 143.207031 23.058594 144.613281 23.917969 C 146.015625 24.78125 147.101562 25.996094 147.867188 27.566406 C 148.632812 29.132812 149.015625 31.015625 149.015625 33.210938 L 149.015625 46.433594 C 149.015625 46.746094 148.90625 47.011719 148.6875 47.230469 C 148.46875 47.453125 148.203125 47.5625 147.890625 47.5625 L 143.769531 47.5625 C 143.457031 47.5625 143.191406 47.453125 142.972656 47.230469 C 142.753906 47.011719 142.644531 46.746094 142.644531 46.433594 L 142.644531 33.492188 C 142.644531 31.675781 142.199219 30.246094 141.308594 29.210938 C 140.417969 28.175781 139.132812 27.660156 137.445312 27.660156 C 135.820312 27.660156 134.527344 28.175781 133.558594 29.210938 C 132.589844 30.246094 132.105469 31.675781 132.105469 33.492188 L 132.105469 46.433594 C 132.105469 46.746094 131.996094 47.011719 131.777344 47.230469 C 131.558594 47.453125 131.292969 47.5625 130.980469 47.5625 Z M 126.859375 47.5625 "/>
<path style=" stroke:none;fill-rule:nonzero;fill:rgb(45.490196%,66.666667%,0%);fill-opacity:1;" d="M 165.453125 48.03125 C 161.988281 48.03125 159.242188 47.027344 157.210938 45.019531 C 155.179688 43.011719 154.089844 40.160156 153.933594 36.457031 C 153.902344 36.144531 153.886719 35.746094 153.886719 35.257812 C 153.886719 34.773438 153.902344 34.386719 153.933594 34.105469 C 154.058594 31.722656 154.597656 29.675781 155.546875 27.964844 C 156.5 26.257812 157.820312 24.9375 159.507812 24.011719 C 161.191406 23.089844 163.175781 22.625 165.453125 22.625 C 167.984375 22.625 170.109375 23.152344 171.824219 24.203125 C 173.542969 25.253906 174.839844 26.710938 175.710938 28.578125 C 176.585938 30.445312 177.023438 32.601562 177.023438 35.046875 L 177.023438 36.035156 C 177.023438 36.347656 176.914062 36.613281 176.695312 36.835938 C 176.476562 37.054688 176.195312 37.164062 175.851562 37.164062 L 160.300781 37.164062 L 160.300781 37.539062 C 160.332031 38.636719 160.542969 39.648438 160.933594 40.574219 C 161.324219 41.5 161.902344 42.246094 162.667969 42.808594 C 163.433594 43.375 164.347656 43.65625 165.40625 43.65625 C 166.28125 43.65625 167.015625 43.523438 167.609375 43.257812 C 168.203125 42.988281 168.6875 42.683594 169.0625 42.339844 C 169.4375 41.992188 169.703125 41.710938 169.859375 41.492188 C 170.140625 41.117188 170.363281 40.886719 170.535156 40.808594 C 170.707031 40.730469 170.964844 40.691406 171.308594 40.691406 L 175.339844 40.691406 C 175.648438 40.691406 175.90625 40.785156 176.109375 40.972656 C 176.3125 41.164062 176.398438 41.398438 176.367188 41.679688 C 176.335938 42.183594 176.078125 42.792969 175.59375 43.515625 C 175.113281 44.238281 174.417969 44.941406 173.511719 45.632812 C 172.605469 46.324219 171.472656 46.894531 170.117188 47.347656 C 168.757812 47.804688 167.203125 48.03125 165.453125 48.03125 Z M 160.300781 33.210938 L 170.652344 33.210938 L 170.652344 33.070312 C 170.652344 31.847656 170.449219 30.773438 170.046875 29.847656 C 169.640625 28.921875 169.046875 28.199219 168.265625 27.683594 C 167.484375 27.164062 166.546875 26.90625 165.453125 26.90625 C 164.363281 26.90625 163.425781 27.164062 162.644531 27.683594 C 161.863281 28.199219 161.277344 28.921875 160.886719 29.847656 C 160.496094 30.773438 160.300781 31.847656 160.300781 33.070312 Z M 160.300781 33.210938 "/>
<path style=" stroke:none;fill-rule:nonzero;fill:rgb(45.490196%,66.666667%,0%);fill-opacity:1;" d="M 192.902344 47.5625 C 191.027344 47.5625 189.453125 47.230469 188.171875 46.574219 C 186.890625 45.914062 185.9375 44.933594 185.3125 43.632812 C 184.691406 42.332031 184.378906 40.707031 184.378906 38.761719 L 184.378906 28.082031 L 180.675781 28.082031 C 180.363281 28.082031 180.097656 27.972656 179.882812 27.753906 C 179.664062 27.535156 179.554688 27.253906 179.554688 26.90625 L 179.554688 24.226562 C 179.554688 23.910156 179.664062 23.644531 179.882812 23.425781 C 180.097656 23.207031 180.363281 23.097656 180.675781 23.097656 L 184.378906 23.097656 L 184.378906 15.285156 C 184.378906 14.972656 184.480469 14.707031 184.683594 14.488281 C 184.886719 14.265625 185.15625 14.15625 185.5 14.15625 L 189.296875 14.15625 C 189.609375 14.15625 189.875 14.265625 190.09375 14.488281 C 190.308594 14.707031 190.417969 14.972656 190.417969 15.285156 L 190.417969 23.097656 L 196.273438 23.097656 C 196.585938 23.097656 196.851562 23.207031 197.070312 23.425781 C 197.289062 23.644531 197.398438 23.910156 197.398438 24.226562 L 197.398438 26.90625 C 197.398438 27.253906 197.289062 27.535156 197.070312 27.753906 C 196.851562 27.972656 196.585938 28.082031 196.273438 28.082031 L 190.417969 28.082031 L 190.417969 38.292969 C 190.417969 39.578125 190.644531 40.582031 191.097656 41.304688 C 191.550781 42.023438 192.339844 42.386719 193.464844 42.386719 L 196.695312 42.386719 C 197.007812 42.386719 197.273438 42.496094 197.492188 42.714844 C 197.710938 42.933594 197.820312 43.203125 197.820312 43.515625 L 197.820312 46.433594 C 197.820312 46.746094 197.710938 47.011719 197.492188 47.230469 C 197.273438 47.453125 197.007812 47.5625 196.695312 47.5625 Z M 192.902344 47.5625 "/>
<path style=" stroke:none;fill-rule:nonzero;fill:rgb(13.72549%,12.156863%,12.54902%);fill-opacity:1;" d="M 89.296875 54.398438 C 89.371094 54.398438 89.4375 54.425781 89.492188 54.480469 C 89.546875 54.535156 89.574219 54.601562 89.574219 54.675781 L 89.574219 55.769531 C 89.574219 55.84375 89.546875 55.910156 89.492188 55.964844 C 89.4375 56.019531 89.371094 56.046875 89.296875 56.046875 L 86.230469 56.046875 L 86.230469 57.457031 L 89.089844 57.457031 C 89.164062 57.457031 89.230469 57.484375 89.285156 57.539062 C 89.339844 57.59375 89.367188 57.660156 89.367188 57.734375 L 89.367188 58.828125 C 89.367188 58.902344 89.339844 58.96875 89.285156 59.023438 C 89.230469 59.078125 89.164062 59.105469 89.089844 59.105469 L 86.230469 59.105469 L 86.230469 61.332031 C 86.230469 61.40625 86.203125 61.472656 86.148438 61.527344 C 86.09375 61.582031 86.027344 61.609375 85.953125 61.609375 L 84.609375 61.609375 C 84.535156 61.609375 84.46875 61.582031 84.414062 61.527344 C 84.359375 61.472656 84.332031 61.40625 84.332031 61.332031 L 84.332031 54.675781 C 84.332031 54.601562 84.359375 54.535156 84.414062 54.480469 C 84.46875 54.425781 84.535156 54.398438 84.609375 54.398438 Z M 89.296875 54.398438 "/>
<path style=" stroke:none;fill-rule:nonzero;fill:rgb(13.72549%,12.156863%,12.54902%);fill-opacity:1;" d="M 98.90625 54.296875 C 99.554688 54.296875 100.117188 54.417969 100.585938 54.664062 C 101.058594 54.914062 101.421875 55.246094 101.679688 55.671875 C 101.9375 56.09375 102.078125 56.566406 102.105469 57.085938 C 102.117188 57.277344 102.125 57.589844 102.125 58.015625 C 102.125 58.433594 102.117188 58.734375 102.105469 58.921875 C 102.078125 59.441406 101.9375 59.914062 101.679688 60.335938 C 101.421875 60.757812 101.058594 61.09375 100.585938 61.339844 C 100.117188 61.589844 99.554688 61.710938 98.90625 61.710938 C 98.253906 61.710938 97.695312 61.589844 97.222656 61.339844 C 96.75 61.09375 96.386719 60.757812 96.132812 60.335938 C 95.875 59.914062 95.734375 59.441406 95.707031 58.921875 C 95.691406 58.550781 95.683594 58.246094 95.683594 58.015625 C 95.683594 57.78125 95.691406 57.472656 95.707031 57.085938 C 95.734375 56.566406 95.875 56.09375 96.132812 55.671875 C 96.386719 55.246094 96.75 54.914062 97.222656 54.664062 C 97.695312 54.417969 98.253906 54.296875 98.90625 54.296875 Z M 100.207031 57.136719 C 100.171875 56.773438 100.046875 56.484375 99.832031 56.269531 C 99.617188 56.050781 99.308594 55.941406 98.90625 55.941406 C 98.5 55.941406 98.191406 56.050781 97.976562 56.269531 C 97.761719 56.484375 97.636719 56.773438 97.601562 57.136719 C 97.582031 57.363281 97.570312 57.648438 97.570312 57.992188 C 97.570312 58.328125 97.582031 58.621094 97.601562 58.867188 C 97.636719 59.234375 97.761719 59.523438 97.976562 59.738281 C 98.191406 59.957031 98.5 60.0625 98.90625 60.0625 C 99.308594 60.0625 99.617188 59.957031 99.832031 59.738281 C 100.046875 59.523438 100.171875 59.234375 100.207031 58.867188 C 100.226562 58.621094 100.238281 58.328125 100.238281 57.992188 C 100.238281 57.648438 100.226562 57.363281 100.207031 57.136719 Z M 100.207031 57.136719 "/>
<path style=" stroke:none;fill-rule:nonzero;fill:rgb(13.72549%,12.156863%,12.54902%);fill-opacity:1;" d="M 114.472656 54.398438 C 114.546875 54.398438 114.613281 54.425781 114.667969 54.480469 C 114.722656 54.535156 114.75 54.601562 114.75 54.675781 L 114.75 58.785156 C 114.75 59.40625 114.621094 59.933594 114.359375 60.371094 C 114.101562 60.8125 113.738281 61.144531 113.269531 61.371094 C 112.800781 61.597656 112.253906 61.710938 111.632812 61.710938 C 111.003906 61.710938 110.453125 61.597656 109.984375 61.371094 C 109.519531 61.144531 109.15625 60.8125 108.898438 60.371094 C 108.644531 59.933594 108.515625 59.40625 108.515625 58.785156 L 108.515625 54.675781 C 108.515625 54.601562 108.542969 54.535156 108.597656 54.480469 C 108.652344 54.425781 108.714844 54.398438 108.792969 54.398438 L 110.136719 54.398438 C 110.210938 54.398438 110.273438 54.425781 110.328125 54.480469 C 110.382812 54.535156 110.410156 54.601562 110.410156 54.675781 L 110.410156 58.746094 C 110.410156 59.164062 110.515625 59.488281 110.726562 59.71875 C 110.933594 59.949219 111.234375 60.0625 111.632812 60.0625 C 112.027344 60.0625 112.332031 59.949219 112.539062 59.71875 C 112.75 59.488281 112.851562 59.164062 112.851562 58.746094 L 112.851562 54.675781 C 112.851562 54.601562 112.878906 54.535156 112.933594 54.480469 C 112.988281 54.425781 113.054688 54.398438 113.128906 54.398438 Z M 114.472656 54.398438 "/>
<path style=" stroke:none;fill-rule:nonzero;fill:rgb(13.72549%,12.156863%,12.54902%);fill-opacity:1;" d="M 126.0625 61.609375 C 125.960938 61.609375 125.871094 61.582031 125.796875 61.53125 C 125.71875 61.480469 125.667969 61.425781 125.640625 61.371094 L 123.292969 57.847656 L 123.292969 61.332031 C 123.292969 61.40625 123.265625 61.472656 123.210938 61.527344 C 123.15625 61.582031 123.089844 61.609375 123.015625 61.609375 L 121.671875 61.609375 C 121.597656 61.609375 121.53125 61.582031 121.476562 61.527344 C 121.421875 61.472656 121.394531 61.40625 121.394531 61.332031 L 121.394531 54.675781 C 121.394531 54.601562 121.421875 54.535156 121.476562 54.480469 C 121.53125 54.425781 121.597656 54.398438 121.671875 54.398438 L 122.738281 54.398438 C 122.839844 54.398438 122.929688 54.425781 123.003906 54.476562 C 123.082031 54.527344 123.132812 54.582031 123.160156 54.636719 L 125.507812 58.15625 L 125.507812 54.675781 C 125.507812 54.601562 125.535156 54.535156 125.589844 54.480469 C 125.644531 54.425781 125.710938 54.398438 125.785156 54.398438 L 127.128906 54.398438 C 127.203125 54.398438 127.269531 54.425781 127.324219 54.480469 C 127.378906 54.535156 127.40625 54.601562 127.40625 54.675781 L 127.40625 61.332031 C 127.40625 61.40625 127.378906 61.472656 127.324219 61.527344 C 127.269531 61.582031 127.203125 61.609375 127.128906 61.609375 Z M 126.0625 61.609375 "/>
<path style=" stroke:none;fill-rule:nonzero;fill:rgb(13.72549%,12.156863%,12.54902%);fill-opacity:1;" d="M 140.171875 57.273438 C 140.1875 57.65625 140.195312 57.902344 140.195312 58.015625 C 140.195312 58.125 140.1875 58.363281 140.171875 58.734375 C 140.152344 59.296875 140.007812 59.796875 139.738281 60.230469 C 139.46875 60.660156 139.097656 61 138.625 61.242188 C 138.152344 61.488281 137.605469 61.609375 136.984375 61.609375 L 134.214844 61.609375 C 134.140625 61.609375 134.074219 61.582031 134.019531 61.527344 C 133.964844 61.472656 133.9375 61.40625 133.9375 61.332031 L 133.9375 54.675781 C 133.9375 54.601562 133.964844 54.535156 134.019531 54.480469 C 134.074219 54.425781 134.140625 54.398438 134.214844 54.398438 L 136.933594 54.398438 C 137.554688 54.398438 138.105469 54.519531 138.589844 54.765625 C 139.070312 55.007812 139.449219 55.347656 139.726562 55.785156 C 140.003906 56.21875 140.152344 56.714844 140.171875 57.273438 Z M 135.835938 56.046875 L 135.835938 59.960938 L 136.933594 59.960938 C 137.792969 59.960938 138.242188 59.566406 138.277344 58.777344 C 138.289062 58.378906 138.296875 58.117188 138.296875 57.992188 C 138.296875 57.855469 138.289062 57.601562 138.277344 57.230469 C 138.253906 56.839844 138.128906 56.542969 137.890625 56.34375 C 137.65625 56.144531 137.320312 56.046875 136.882812 56.046875 Z M 135.835938 56.046875 "/>
<path style=" stroke:none;fill-rule:nonzero;fill:rgb(13.72549%,12.156863%,12.54902%);fill-opacity:1;" d="M 152.410156 61.226562 C 152.4375 61.296875 152.449219 61.347656 152.449219 61.382812 C 152.449219 61.445312 152.425781 61.496094 152.382812 61.542969 C 152.339844 61.585938 152.285156 61.609375 152.222656 61.609375 L 150.929688 61.609375 C 150.816406 61.609375 150.726562 61.582031 150.660156 61.53125 C 150.59375 61.480469 150.550781 61.421875 150.53125 61.351562 L 150.246094 60.496094 L 147.515625 60.496094 L 147.230469 61.351562 C 147.207031 61.421875 147.164062 61.480469 147.101562 61.53125 C 147.035156 61.582031 146.945312 61.609375 146.828125 61.609375 L 145.539062 61.609375 C 145.476562 61.609375 145.421875 61.585938 145.378906 61.542969 C 145.332031 61.496094 145.3125 61.445312 145.3125 61.382812 C 145.3125 61.347656 145.324219 61.296875 145.351562 61.226562 L 147.589844 54.738281 C 147.621094 54.640625 147.675781 54.5625 147.753906 54.496094 C 147.828125 54.429688 147.925781 54.398438 148.050781 54.398438 L 149.710938 54.398438 C 149.835938 54.398438 149.933594 54.429688 150.007812 54.496094 C 150.082031 54.5625 150.136719 54.640625 150.171875 54.738281 Z M 149.710938 58.898438 L 148.878906 56.425781 L 148.050781 58.898438 Z M 149.710938 58.898438 "/>
<path style=" stroke:none;fill-rule:nonzero;fill:rgb(13.72549%,12.156863%,12.54902%);fill-opacity:1;" d="M 163.832031 54.398438 C 163.90625 54.398438 163.972656 54.425781 164.027344 54.480469 C 164.082031 54.535156 164.109375 54.601562 164.109375 54.675781 L 164.109375 55.769531 C 164.109375 55.84375 164.082031 55.910156 164.027344 55.964844 C 163.972656 56.019531 163.90625 56.046875 163.832031 56.046875 L 162.027344 56.046875 L 162.027344 61.332031 C 162.027344 61.40625 162 61.472656 161.945312 61.527344 C 161.890625 61.582031 161.828125 61.609375 161.75 61.609375 L 160.40625 61.609375 C 160.332031 61.609375 160.265625 61.582031 160.210938 61.527344 C 160.15625 61.472656 160.128906 61.40625 160.128906 61.332031 L 160.128906 56.046875 L 158.324219 56.046875 C 158.25 56.046875 158.1875 56.019531 158.132812 55.964844 C 158.078125 55.910156 158.050781 55.84375 158.050781 55.769531 L 158.050781 54.675781 C 158.050781 54.601562 158.078125 54.535156 158.132812 54.480469 C 158.1875 54.425781 158.25 54.398438 158.324219 54.398438 Z M 163.832031 54.398438 "/>
<path style=" stroke:none;fill-rule:nonzero;fill:rgb(13.72549%,12.156863%,12.54902%);fill-opacity:1;" d="M 170.589844 61.609375 C 170.515625 61.609375 170.453125 61.582031 170.398438 61.527344 C 170.34375 61.472656 170.316406 61.40625 170.316406 61.332031 L 170.316406 54.675781 C 170.316406 54.601562 170.34375 54.535156 170.398438 54.480469 C 170.453125 54.425781 170.515625 54.398438 170.589844 54.398438 L 171.933594 54.398438 C 172.011719 54.398438 172.074219 54.425781 172.128906 54.480469 C 172.183594 54.535156 172.210938 54.601562 172.210938 54.675781 L 172.210938 61.332031 C 172.210938 61.40625 172.183594 61.472656 172.128906 61.527344 C 172.074219 61.582031 172.011719 61.609375 171.933594 61.609375 Z M 170.589844 61.609375 "/>
<path style=" stroke:none;fill-rule:nonzero;fill:rgb(13.72549%,12.156863%,12.54902%);fill-opacity:1;" d="M 181.894531 54.296875 C 182.542969 54.296875 183.101562 54.417969 183.574219 54.664062 C 184.046875 54.914062 184.410156 55.246094 184.667969 55.671875 C 184.921875 56.09375 185.066406 56.566406 185.09375 57.085938 C 185.105469 57.277344 185.113281 57.589844 185.113281 58.015625 C 185.113281 58.433594 185.105469 58.734375 185.09375 58.921875 C 185.066406 59.441406 184.921875 59.914062 184.667969 60.335938 C 184.410156 60.757812 184.046875 61.09375 183.574219 61.339844 C 183.101562 61.589844 182.542969 61.710938 181.894531 61.710938 C 181.242188 61.710938 180.683594 61.589844 180.210938 61.339844 C 179.738281 61.09375 179.375 60.757812 179.117188 60.335938 C 178.863281 59.914062 178.71875 59.441406 178.691406 58.921875 C 178.679688 58.550781 178.671875 58.246094 178.671875 58.015625 C 178.671875 57.78125 178.679688 57.472656 178.691406 57.085938 C 178.71875 56.566406 178.863281 56.09375 179.117188 55.671875 C 179.375 55.246094 179.738281 54.914062 180.210938 54.664062 C 180.683594 54.417969 181.242188 54.296875 181.894531 54.296875 Z M 183.195312 57.136719 C 183.160156 56.773438 183.035156 56.484375 182.820312 56.269531 C 182.605469 56.050781 182.296875 55.941406 181.894531 55.941406 C 181.488281 55.941406 181.179688 56.050781 180.964844 56.269531 C 180.75 56.484375 180.625 56.773438 180.589844 57.136719 C 180.570312 57.363281 180.558594 57.648438 180.558594 57.992188 C 180.558594 58.328125 180.570312 58.621094 180.589844 58.867188 C 180.625 59.234375 180.75 59.523438 180.964844 59.738281 C 181.179688 59.957031 181.488281 60.0625 181.894531 60.0625 C 182.296875 60.0625 182.605469 59.957031 182.820312 59.738281 C 183.035156 59.523438 183.160156 59.234375 183.195312 58.867188 C 183.214844 58.621094 183.226562 58.328125 183.226562 57.992188 C 183.226562 57.648438 183.214844 57.363281 183.195312 57.136719 Z M 183.195312 57.136719 "/>
<path style=" stroke:none;fill-rule:nonzero;fill:rgb(13.72549%,12.156863%,12.54902%);fill-opacity:1;" d="M 196.242188 61.609375 C 196.136719 61.609375 196.050781 61.582031 195.972656 61.53125 C 195.898438 61.480469 195.847656 61.425781 195.820312 61.371094 L 193.472656 57.847656 L 193.472656 61.332031 C 193.472656 61.40625 193.445312 61.472656 193.390625 61.527344 C 193.335938 61.582031 193.269531 61.609375 193.195312 61.609375 L 191.851562 61.609375 C 191.777344 61.609375 191.710938 61.582031 191.65625 61.527344 C 191.601562 61.472656 191.574219 61.40625 191.574219 61.332031 L 191.574219 54.675781 C 191.574219 54.601562 191.601562 54.535156 191.65625 54.480469 C 191.710938 54.425781 191.777344 54.398438 191.851562 54.398438 L 192.917969 54.398438 C 193.019531 54.398438 193.109375 54.425781 193.183594 54.476562 C 193.257812 54.527344 193.3125 54.582031 193.339844 54.636719 L 195.6875 58.15625 L 195.6875 54.675781 C 195.6875 54.601562 195.714844 54.535156 195.769531 54.480469 C 195.824219 54.425781 195.886719 54.398438 195.964844 54.398438 L 197.308594 54.398438 C 197.382812 54.398438 197.449219 54.425781 197.503906 54.480469 C 197.558594 54.535156 197.585938 54.601562 197.585938 54.675781 L 197.585938 61.332031 C 197.585938 61.40625 197.558594 61.472656 197.503906 61.527344 C 197.449219 61.582031 197.382812 61.609375 197.308594 61.609375 Z M 196.242188 61.609375 "/>
</g>
</svg>
