<svg xmlns="http://www.w3.org/2000/svg" width="200px" fill="none" viewBox="0 0 117 32" alt=""><path fill="#000" d="M69.761 19.042h-7.818v1.694h2.895v7.236h2.047v-7.236h2.876v-1.694zm5.289-.282c-2.665 0-4.818 2.117-4.818 4.73 0 2.611 2.153 4.729 4.818 4.729 2.665 0 4.818-2.118 4.818-4.73 0-2.611-2.17-4.73-4.818-4.73zm2.347 6.159a2.492 2.492 0 01-1.888 1.517 4.314 4.314 0 01-.476.036c-.16 0-.318-.018-.477-.036a2.492 2.492 0 01-1.888-1.517 3.822 3.822 0 01-.283-1.43c0-.511.089-.988.283-1.43a2.492 2.492 0 011.888-1.517 4.25 4.25 0 01.477-.035c.158 0 .317.017.476.035a2.49 2.49 0 011.888 1.518c.177.441.283.935.283 1.43 0 .494-.106.988-.283 1.429zm2.527-5.894h2.4l2.259 3.83 2.241-3.83h2.418l-3.636 5.612v3.318H83.56v-3.318l-3.635-5.612zm14.171-.265c-2.665 0-4.818 2.117-4.818 4.73 0 2.611 2.153 4.729 4.818 4.729 2.665 0 4.818-2.118 4.818-4.73.018-2.611-2.153-4.73-4.818-4.73zm2.365 6.159a2.492 2.492 0 01-1.888 1.517c-.16.036-.318.036-.477.036-.159 0-.317-.018-.476-.036a2.492 2.492 0 01-1.889-1.517 3.822 3.822 0 01-.282-1.43c0-.511.106-.988.282-1.43a2.528 2.528 0 011.889-1.517c.159-.018.317-.035.476-.035.159 0 .318.017.477.035.864.141 1.57.741 1.888 1.518.176.441.282.935.282 1.43a3.9 3.9 0 01-.282 1.429zm16.373-5.894h-2.541l-3.688 8.912h2.276l.741-1.959h3.865l.741 1.959h2.277l-3.671-8.912zm-2.612 5.4l1.342-3.53 1.341 3.53h-2.683zm-3.05-5.383h-7.818v1.694h2.895v7.236h2.047v-7.236h2.876v-1.694zm-59.154 2.541c-.864 0-1.553.318-1.94.883l-.124.176v-4.006H44.1v9.336h1.853v-.989l.123.195c.37.582 1.077.917 1.924.917.864 0 1.659-.317 2.223-.917.565-.6.865-1.43.865-2.347 0-.918-.3-1.748-.865-2.348-.564-.582-1.34-.9-2.206-.9zm-.476 4.871c-.441 0-.847-.159-1.147-.441a1.583 1.583 0 01-.494-1.182c0-.953.688-1.642 1.64-1.642.954 0 1.607.653 1.607 1.642.017.988-.618 1.623-1.606 1.623zm9.105-4.747l-1.306 3.935-.053.177-.07-.177-1.395-3.935h-2.029l2.524 6.07.017.018-.017.018-.16.388c-.229.53-.635.794-1.235.794a1.84 1.84 0 01-.582-.088l-.212 1.5c.353.141.742.194 1.183.194 1.288 0 2.047-.565 2.54-1.888l2.719-7.024-1.924.018zM50.898 3.16l-2.612 8.505-2.559-8.506h-3.141l3.988 11.912h2.965l2.506-7.994 2.577 7.994h2.965L61.362 3.16h-2.947l-2.453 8.436-2.683-8.436h-2.382zm25.518 0l4.659 11.911h2.894L88.593 3.16h-2.93l-3.053 8.595-3.053-8.595h-3.141zm19.258-.23c-3.477 0-6 2.612-6 6.212 0 3.635 2.594 6.176 6.318 6.176 1.906 0 3.617-.494 4.853-1.394l-.706-2.223c-1.041.776-2.435 1.217-3.847 1.217-2.171 0-3.512-1.147-3.706-3.159v-.053h8.806v-.405c0-3.812-2.294-6.371-5.718-6.371zm-3 4.853l.018-.053c.37-1.606 1.517-2.594 3-2.594 1.465 0 2.576 1.04 2.806 2.612V7.8l-5.824-.017zm18.67-4.889c-1.8 0-3.3.812-4.129 2.206l-.088.141V3.16h-2.859v11.91h2.859V8.718c0-1.994 1.164-3.23 3.035-3.23 1.712 0 2.524 1.006 2.524 3.16v6.423h2.858v-7.57c-.017-3.019-1.464-4.607-4.2-4.607zm-42.288.018c-3.494 0-6.318 2.77-6.318 6.194s2.824 6.194 6.318 6.194c3.494 0 6.318-2.77 6.318-6.194s-2.824-6.194-6.318-6.194zm3.088 8.065a3.261 3.261 0 01-2.47 1.994 3.498 3.498 0 01-.618.053c-.212 0-.423-.018-.617-.053a3.261 3.261 0 01-2.471-1.994 5.109 5.109 0 01-.353-1.871c0-.653.123-1.288.353-1.87a3.261 3.261 0 012.47-1.995c.195-.035.406-.053.618-.053.212 0 .424.018.618.053 1.13.194 2.065.97 2.47 1.994a5.1 5.1 0 01.353 1.871 4.473 4.473 0 01-.353 1.87z"></path><path fill="#575A60" d="M18.632 26.648c1.376.812 1.676 1.536 1.676 2.63 0 1.535-1.253 2.665-2.93 2.665h10.43V21.354l-9.176 5.294z"></path><path fill="#D30C28" d="M27.81.177l-7.324 6.371 7.324 4.218c.018-1.588.494-2.224 1.43-2.77 1.34-.777 2.947-.248 3.776 1.2L27.81.176z"></path><path fill="#6F7278" d="M27.809 10.871v21.072L36.368 17.1c.37-.653.37-1.447 0-2.1l-3.353-5.806c-.83-1.447-2.453-1.977-3.777-1.2-.97.547-1.43 1.2-1.43 2.876z"></path><path fill="#414449" d="M19.848 27.654c.37.476.476.988.476 1.623 0 1.536-1.253 2.665-2.93 2.665h-1.076 7.271l-3.741-4.288z"></path><path fill="#A5A5A5" d="M5.728 10.412c-.794-.865-.917-2.188-.229-3.37L.293 16.06l9.177 5.294v-6.636l-3.742-4.306z"></path><path fill="#838688" d="M6.348 10.908a2.457 2.457 0 01-.618-.494l3.742 4.288v-3.935c-1.394.776-2.189.688-3.124.14z"></path><path fill="#E60A1E" d="M9.544 10.713c.442-.265.795-.459.795-.459L27.809.177H10.675c-.741 0-1.447.406-1.818 1.041L5.503 7.025c-.83 1.447-.494 3.105.847 3.882.953.565 1.765.635 3.194-.194z"></path><path fill="#A1192E" d="M18.629 5.472l1.853 1.076 7.324-6.37-9.177 5.294z"></path><path fill="#C7C7C7" d="M18.543 26.596c-.441-.265-.794-.46-.794-.46L.277 16.06l8.56 14.842a2.068 2.068 0 001.817 1.041h6.706c1.677 0 2.93-1.13 2.93-2.665.018-1.112-.3-1.853-1.747-2.682z"></path></svg>
